<?xml version="1.0" encoding="UTF-8" standalone="no"?>
<!-- Created with Inkscape (http://www.inkscape.org/) -->

<svg
   width="210mm"
   height="297mm"
   viewBox="0 0 210 297"
   version="1.1"
   id="svg5"
   inkscape:version="1.1.1 (3bf5ae0d25, 2021-09-20)"
   sodipodi:docname="logo.svg"
   xmlns:inkscape="http://www.inkscape.org/namespaces/inkscape"
   xmlns:sodipodi="http://sodipodi.sourceforge.net/DTD/sodipodi-0.dtd"
   xmlns="http://www.w3.org/2000/svg"
   xmlns:svg="http://www.w3.org/2000/svg">
  <sodipodi:namedview
     id="namedview7"
     pagecolor="#505050"
     bordercolor="#eeeeee"
     borderopacity="1"
     inkscape:pageshadow="0"
     inkscape:pageopacity="0"
     inkscape:pagecheckerboard="0"
     inkscape:document-units="mm"
     showgrid="false"
     inkscape:zoom="0.35355339"
     inkscape:cx="-43.84062"
     inkscape:cy="997.02056"
     inkscape:window-width="2560"
     inkscape:window-height="1377"
     inkscape:window-x="1916"
     inkscape:window-y="1089"
     inkscape:window-maximized="1"
     inkscape:current-layer="g13304" />
  <defs
     id="defs2">
    <rect
       x="220.61731"
       y="977.22157"
       width="53.740115"
       height="15.556349"
       id="rect2715" />
    <inkscape:perspective
       sodipodi:type="inkscape:persp3d"
       inkscape:vp_x="0 : 148.5 : 1"
       inkscape:vp_y="0 : 1000 : 0"
       inkscape:vp_z="210 : 148.5 : 1"
       inkscape:persp3d-origin="105 : 99 : 1"
       id="perspective15625" />
  </defs>
  <g
     inkscape:label="Layer 1"
     inkscape:groupmode="layer"
     id="layer1">
    <text
       xml:space="preserve"
       transform="scale(0.26458333)"
       id="text2713"
       style="font-weight:bold;font-size:18.6667px;line-height:1.25;font-family:'Frutiger LT Std 45 Light';-inkscape-font-specification:'Frutiger LT Std 45 Light,  Bold';white-space:pre;shape-inside:url(#rect2715);fill:#000000" />
    <g
       id="g13304"
       transform="translate(0,-24.268106)">
      <path
         id="text16297"
         style="font-weight:bold;font-size:3.09554px;line-height:1.25;font-family:'Bell MT';-inkscape-font-specification:'Bell MT Bold';fill:none;fill-opacity:1;stroke:#000000;stroke-width:5.2565;stroke-miterlimit:4;stroke-dasharray:none;stroke-opacity:1"
         d="m 94.589739,81.448123 -24.447351,26.593157 6.818101,0.36796 -12.957062,64.78531 c -2.436388,12.1299 -1.234752,22.00844 3.585458,29.63562 2.807497,4.39443 6.758494,7.89001 11.843364,10.48514 5.13771,2.59671 10.66465,3.88455 16.59709,3.88455 11.811771,0 22.577351,-3.97917 32.270441,-11.92489 9.69314,-7.9452 15.70621,-17.70968 18.03673,-29.30972 2.27764,-11.33512 0.21552,-21.01391 -6.19326,-29.06477 -6.35621,-8.05138 -15.1455,-12.08784 -26.32171,-12.08784 -1.80088,0 -8.87176,-0.31539 -12.42059,0.051 l -6.403831,32.65391 c 3.17808,-1.90811 10.160661,-2.33914 12.332381,-2.33914 3.0719,0 5.42055,1.11963 7.06253,3.34313 1.69469,2.17093 2.21088,4.86226 1.57537,8.09501 -0.63551,3.12236 -2.29657,5.81579 -4.99841,8.04034 -2.64822,2.17094 -5.59717,3.25903 -8.82818,3.25903 -7.574411,0 -10.295021,-5.26859 -8.176331,-15.80892 l 12.386681,-62.01514 7.0354,0.36796 z"
         sodipodi:nodetypes="ccccccssscsccscccscccc" />
      <text
         xml:space="preserve"
         style="font-style:italic;font-variant:normal;font-weight:bold;font-stretch:normal;font-size:33.5062px;line-height:1.25;font-family:TimeBurner;-inkscape-font-specification:'TimeBurner Bold Italic';stroke-width:2.64521"
         x="45.7528"
         y="267.96225"
         id="text7957"><tspan
           sodipodi:role="line"
           id="tspan7955"
           style="font-style:italic;font-variant:normal;font-weight:bold;font-stretch:normal;font-family:TimeBurner;-inkscape-font-specification:'TimeBurner Bold Italic';stroke-width:2.64521"
           x="45.7528"
           y="267.96225"
           rotate="0 0 0 0 0 0 0">UPbank</tspan></text>
    </g>
  </g>
</svg>
